<svg xmlns="http://www.w3.org/2000/svg" xmlns:xlink="http://www.w3.org/1999/xlink" width="250" zoomAndPan="magnify" viewBox="0 0 187.5 74.999997" height="100" preserveAspectRatio="xMidYMid meet" version="1.0"><defs><g><g id="id1"/></g><clipPath id="id2"><path d="M 0 0.101562 L 187 0.101562 L 187 74.898438 L 0 74.898438 Z M 0 0.101562 " clip-rule="nonzero"/></clipPath></defs><g clip-path="url(#id2)"><path fill="rgb(100%, 100%, 100%)" d="M 0 0.101562 L 187.5 0.101562 L 187.5 82.601562 L 0 82.601562 Z M 0 0.101562 " fill-opacity="1" fill-rule="nonzero"/><path fill="rgb(100%, 100%, 100%)" d="M 0 0.101562 L 187.5 0.101562 L 187.5 75.101562 L 0 75.101562 Z M 0 0.101562 " fill-opacity="1" fill-rule="nonzero"/><path fill="rgb(100%, 100%, 100%)" d="M 0 0.101562 L 187.5 0.101562 L 187.5 75.101562 L 0 75.101562 Z M 0 0.101562 " fill-opacity="1" fill-rule="nonzero"/><path fill="rgb(100%, 100%, 100%)" d="M 0 0.101562 L 187.5 0.101562 L 187.5 75.101562 L 0 75.101562 Z M 0 0.101562 " fill-opacity="1" fill-rule="nonzero"/></g><g fill="rgb(32.939148%, 32.939148%, 32.939148%)" fill-opacity="1"><g transform="translate(9.868801, 49.470286)"><g><path d="M 1.46875 0 L 1.46875 -0.40625 L 1.875 -0.40625 C 2.738281 -0.40625 3.390625 -0.757812 3.828125 -1.46875 C 4.015625 -1.789062 4.125 -2.15625 4.15625 -2.5625 L 4.15625 -21.84375 C 4.125 -22.6875 3.742188 -23.3125 3.015625 -23.71875 C 2.660156 -23.90625 2.28125 -24 1.875 -24 L 1.421875 -24 L 1.421875 -24.40625 L 12.6875 -24.40625 L 12.6875 -24 L 12.25 -24 C 11.65625 -24 11.132812 -23.796875 10.6875 -23.390625 C 10.238281 -22.984375 10 -22.484375 9.96875 -21.890625 L 9.96875 -2.5625 C 10 -1.96875 10.226562 -1.457031 10.65625 -1.03125 C 11.09375 -0.613281 11.625 -0.40625 12.25 -0.40625 L 12.65625 -0.40625 L 12.6875 0 Z M 28.28125 0 L 25.140625 0 C 21.367188 0 18.6875 -1.046875 17.09375 -3.140625 C 16.957031 -3.347656 16.359375 -4.171875 15.296875 -5.609375 C 12.554688 -9.441406 11.1875 -11.367188 11.1875 -11.390625 L 19.53125 -22.453125 C 19.832031 -22.835938 19.882812 -23.195312 19.6875 -23.53125 C 19.5 -23.875 19.175781 -24.046875 18.71875 -24.046875 L 18.34375 -24.046875 L 18.34375 -24.40625 L 26.65625 -24.40625 L 26.65625 -24.046875 L 26.484375 -24.046875 C 25.023438 -24.046875 23.804688 -23.554688 22.828125 -22.578125 L 16.078125 -14.609375 L 24.609375 -2.71875 C 25.703125 -1.175781 26.925781 -0.390625 28.28125 -0.359375 Z M 28.28125 0 "/></g></g></g><g fill="rgb(32.939148%, 32.939148%, 32.939148%)" fill-opacity="1"><g transform="translate(37.250535, 49.470286)"><g><path d="M 27.109375 -0.40625 L 27.421875 -0.40625 L 27.421875 0 L 15.46875 0 L 15.46875 -0.40625 L 15.796875 -0.40625 C 16.335938 -0.40625 16.726562 -0.566406 16.96875 -0.890625 C 17.21875 -1.222656 17.34375 -1.523438 17.34375 -1.796875 C 17.34375 -2.066406 17.285156 -2.347656 17.171875 -2.640625 L 15.59375 -6.390625 L 6.96875 -6.390625 L 5.34375 -2.609375 C 5.226562 -2.335938 5.171875 -2.054688 5.171875 -1.765625 C 5.171875 -1.484375 5.300781 -1.1875 5.5625 -0.875 C 5.820312 -0.5625 6.222656 -0.40625 6.765625 -0.40625 L 7.078125 -0.40625 L 7.078125 0 L -1.046875 0 L -1.046875 -0.40625 L -0.71875 -0.40625 C -0.15625 -0.40625 0.410156 -0.582031 0.984375 -0.9375 C 1.554688 -1.289062 2.015625 -1.816406 2.359375 -2.515625 L 10.78125 -20.59375 C 11.976562 -23.269531 12.601562 -24.921875 12.65625 -25.546875 L 13.03125 -25.546875 L 23.9375 -2.6875 C 24.28125 -1.894531 24.742188 -1.316406 25.328125 -0.953125 C 25.910156 -0.585938 26.503906 -0.40625 27.109375 -0.40625 Z M 7.65625 -7.96875 L 14.890625 -7.96875 L 11.3125 -16.484375 Z M 7.65625 -7.96875 "/></g></g></g><g fill="rgb(32.939148%, 32.939148%, 32.939148%)" fill-opacity="1"><g transform="translate(63.452371, 49.470286)"><g><path d="M 19.453125 -24.40625 L 30.875 -24.40625 L 30.875 -24 L 30.1875 -24 C 29.5625 -24 29.039062 -23.804688 28.625 -23.421875 C 28.207031 -23.046875 27.984375 -22.5625 27.953125 -21.96875 L 27.953125 -4.1875 C 27.953125 -2.507812 28.0625 -1.128906 28.28125 -0.046875 L 28.359375 0.53125 L 28 0.53125 L 9.3125 -15.953125 L 9.3125 -2.484375 C 9.34375 -1.890625 9.566406 -1.394531 9.984375 -1 C 10.410156 -0.601562 10.9375 -0.40625 11.5625 -0.40625 L 12.25 -0.40625 L 12.25 0 L 0.859375 0 L 0.859375 -0.40625 L 1.5 -0.40625 C 2.125 -0.40625 2.65625 -0.601562 3.09375 -1 C 3.53125 -1.394531 3.75 -1.890625 3.75 -2.484375 L 3.75 -20.390625 C 3.75 -22.015625 3.640625 -23.351562 3.421875 -24.40625 L 3.34375 -24.984375 L 3.703125 -24.9375 L 22.34375 -8.546875 L 22.34375 -21.9375 C 22.34375 -22.53125 22.128906 -23.019531 21.703125 -23.40625 C 21.285156 -23.800781 20.765625 -24 20.140625 -24 L 19.453125 -24 Z M 19.453125 -24.40625 "/></g></g></g><g fill="rgb(32.939148%, 32.939148%, 32.939148%)" fill-opacity="1"><g transform="translate(95.146832, 49.470286)"><g><path d="M 21.5625 -18.34375 C 21.5625 -17.34375 21.34375 -16.460938 20.90625 -15.703125 C 20.070312 -14.242188 18.800781 -13.445312 17.09375 -13.3125 C 18.90625 -13.164062 20.421875 -12.515625 21.640625 -11.359375 C 22.867188 -10.210938 23.484375 -8.742188 23.484375 -6.953125 C 23.484375 -3.453125 21.378906 -1.253906 17.171875 -0.359375 C 15.972656 -0.117188 14.671875 0 13.265625 0 L 1.46875 0 L 1.46875 -0.40625 L 1.90625 -0.40625 C 2.53125 -0.40625 3.050781 -0.609375 3.46875 -1.015625 C 3.894531 -1.421875 4.125 -1.9375 4.15625 -2.5625 L 4.15625 -21.84375 C 4.125 -22.820312 3.660156 -23.488281 2.765625 -23.84375 C 2.492188 -23.945312 2.207031 -24 1.90625 -24 L 1.46875 -24 L 1.46875 -24.40625 L 12.375 -24.40625 C 18.5 -24.40625 21.5625 -22.382812 21.5625 -18.34375 Z M 16.890625 -7.328125 C 16.890625 -8.578125 16.628906 -9.617188 16.109375 -10.453125 C 15.160156 -12.078125 13.519531 -12.890625 11.1875 -12.890625 C 11.15625 -12.890625 11.128906 -12.890625 11.109375 -12.890625 L 11.109375 -13.265625 C 12.410156 -13.265625 13.46875 -13.644531 14.28125 -14.40625 C 15.09375 -15.164062 15.5 -16.34375 15.5 -17.9375 C 15.5 -21.195312 14.019531 -22.828125 11.0625 -22.828125 L 9.921875 -22.828125 L 9.921875 -1.625 L 11.5625 -1.625 C 13.132812 -1.625 14.414062 -2.082031 15.40625 -3 C 16.394531 -3.925781 16.890625 -5.367188 16.890625 -7.328125 Z M 16.890625 -7.328125 "/></g></g></g><g fill="rgb(32.939148%, 32.939148%, 32.939148%)" fill-opacity="1"><g transform="translate(119.721223, 49.470286)"><g><path d="M 27.109375 -0.40625 L 27.421875 -0.40625 L 27.421875 0 L 15.46875 0 L 15.46875 -0.40625 L 15.796875 -0.40625 C 16.335938 -0.40625 16.726562 -0.566406 16.96875 -0.890625 C 17.21875 -1.222656 17.34375 -1.523438 17.34375 -1.796875 C 17.34375 -2.066406 17.285156 -2.347656 17.171875 -2.640625 L 15.59375 -6.390625 L 6.96875 -6.390625 L 5.34375 -2.609375 C 5.226562 -2.335938 5.171875 -2.054688 5.171875 -1.765625 C 5.171875 -1.484375 5.300781 -1.1875 5.5625 -0.875 C 5.820312 -0.5625 6.222656 -0.40625 6.765625 -0.40625 L 7.078125 -0.40625 L 7.078125 0 L -1.046875 0 L -1.046875 -0.40625 L -0.71875 -0.40625 C -0.15625 -0.40625 0.410156 -0.582031 0.984375 -0.9375 C 1.554688 -1.289062 2.015625 -1.816406 2.359375 -2.515625 L 10.78125 -20.59375 C 11.976562 -23.269531 12.601562 -24.921875 12.65625 -25.546875 L 13.03125 -25.546875 L 23.9375 -2.6875 C 24.28125 -1.894531 24.742188 -1.316406 25.328125 -0.953125 C 25.910156 -0.585938 26.503906 -0.40625 27.109375 -0.40625 Z M 7.65625 -7.96875 L 14.890625 -7.96875 L 11.3125 -16.484375 Z M 7.65625 -7.96875 "/></g></g></g><g fill="rgb(32.939148%, 32.939148%, 32.939148%)" fill-opacity="1"><g transform="translate(145.923059, 49.470286)"><g><path d="M 19.453125 -24.40625 L 30.875 -24.40625 L 30.875 -24 L 30.1875 -24 C 29.5625 -24 29.039062 -23.804688 28.625 -23.421875 C 28.207031 -23.046875 27.984375 -22.5625 27.953125 -21.96875 L 27.953125 -4.1875 C 27.953125 -2.507812 28.0625 -1.128906 28.28125 -0.046875 L 28.359375 0.53125 L 28 0.53125 L 9.3125 -15.953125 L 9.3125 -2.484375 C 9.34375 -1.890625 9.566406 -1.394531 9.984375 -1 C 10.410156 -0.601562 10.9375 -0.40625 11.5625 -0.40625 L 12.25 -0.40625 L 12.25 0 L 0.859375 0 L 0.859375 -0.40625 L 1.5 -0.40625 C 2.125 -0.40625 2.65625 -0.601562 3.09375 -1 C 3.53125 -1.394531 3.75 -1.890625 3.75 -2.484375 L 3.75 -20.390625 C 3.75 -22.015625 3.640625 -23.351562 3.421875 -24.40625 L 3.34375 -24.984375 L 3.703125 -24.9375 L 22.34375 -8.546875 L 22.34375 -21.9375 C 22.34375 -22.53125 22.128906 -23.019531 21.703125 -23.40625 C 21.285156 -23.800781 20.765625 -24 20.140625 -24 L 19.453125 -24 Z M 19.453125 -24.40625 "/></g></g></g></svg>